<svg width="256" height="256" viewBox="0 0 256 256" fill="none" xmlns="http://www.w3.org/2000/svg" role="img" aria-labelledby="title desc">
  <title id="title">Voice Business Tracker app icon</title>
  <desc id="desc">A minimal microphone merged with an upward growth chart in indigo and blue.</desc>
  <rect width="256" height="256" rx="58" fill="#0F172A"/>
  <rect x="38" y="38" width="180" height="180" rx="44" fill="url(#bg)"/>
  <path d="M98 98C98 81.431 111.431 68 128 68C144.569 68 158 81.431 158 98V126C158 142.569 144.569 156 128 156C111.431 156 98 142.569 98 126V98Z" fill="white"/>
  <path d="M113 97C113 88.716 119.716 82 128 82C136.284 82 143 88.716 143 97V126C143 134.284 136.284 141 128 141C119.716 141 113 134.284 113 126V97Z" fill="#4F46E5"/>
  <path d="M83 120V128C83 152.853 103.147 173 128 173C152.853 173 173 152.853 173 128V120" stroke="white" stroke-width="14" stroke-linecap="round"/>
  <path d="M128 173V192" stroke="white" stroke-width="14" stroke-linecap="round"/>
  <path d="M104 194H152" stroke="white" stroke-width="14" stroke-linecap="round"/>
  <path d="M88 158L113 133L133 153L173 113" stroke="#3B82F6" stroke-width="13" stroke-linecap="round" stroke-linejoin="round"/>
  <path d="M154 113H173V132" stroke="#3B82F6" stroke-width="13" stroke-linecap="round" stroke-linejoin="round"/>
  <defs>
    <linearGradient id="bg" x1="38" y1="38" x2="218" y2="218" gradientUnits="userSpaceOnUse">
      <stop stop-color="#4F46E5"/>
      <stop offset="1" stop-color="#3B82F6"/>
    </linearGradient>
  </defs>
</svg>
