<svg width="256" height="256" viewBox="0 0 256 256" fill="none" xmlns="http://www.w3.org/2000/svg">
  <rect width="256" height="256" rx="56" fill="#111827"/>
  <circle cx="128" cy="128" r="82" fill="#0F766E"/>
  <path d="M82 130C82 104.595 102.595 84 128 84C153.405 84 174 104.595 174 130V142C174 150.837 166.837 158 158 158H98C89.1634 158 82 150.837 82 142V130Z" fill="#ECFEFF"/>
  <rect x="111" y="56" width="34" height="84" rx="17" fill="#F8FAFC"/>
  <path d="M99 118V130C99 146.016 111.984 159 128 159C144.016 159 157 146.016 157 130V118" stroke="#111827" stroke-width="14" stroke-linecap="round"/>
  <path d="M128 164V190" stroke="#F8FAFC" stroke-width="14" stroke-linecap="round"/>
  <path d="M105 190H151" stroke="#F8FAFC" stroke-width="14" stroke-linecap="round"/>
  <path d="M169 77L183 91L211 63" stroke="#FACC15" stroke-width="13" stroke-linecap="round" stroke-linejoin="round"/>
  <path d="M69 184H91M65 162H103" stroke="#FACC15" stroke-width="10" stroke-linecap="round"/>
  <text x="128" y="232" text-anchor="middle" fill="#F8FAFC" font-family="Arial, sans-serif" font-size="22" font-weight="800">VBT</text>
</svg>
